<mxfile host="app.diagrams.net" modified="2023-11-24T09:56:04.122Z" agent="Mozilla/5.0 (Windows NT 10.0; Win64; x64) AppleWebKit/537.36 (KHTML, like Gecko) Chrome/119.0.0.0 Safari/537.36 Edg/119.0.0.0" etag="DVXDUNGPQL2HSSXlEx5b" version="22.1.3" type="github">
  <diagram name="Seite-1" id="jUABRkouh7aVK3TkSOO1">
    <mxGraphModel dx="844" dy="759" grid="1" gridSize="10" guides="1" tooltips="1" connect="1" arrows="1" fold="1" page="1" pageScale="1" pageWidth="827" pageHeight="1169" background="none" math="0" shadow="0">
      <root>
        <mxCell id="0" />
        <mxCell id="1" parent="0" />
        <mxCell id="0XzX4mWb3L80cD25JRJm-24" value="Dienst-Anbieter" style="whiteSpace=wrap;html=1;aspect=fixed;glass=0;fillColor=none;" vertex="1" parent="1">
          <mxGeometry x="460" y="394.3" width="350" height="350" as="geometry" />
        </mxCell>
        <mxCell id="0XzX4mWb3L80cD25JRJm-1" value="" style="image;points=[];aspect=fixed;html=1;align=center;shadow=0;dashed=0;image=img/lib/allied_telesis/computer_and_terminals/Personal_Computer.svg;" vertex="1" parent="1">
          <mxGeometry x="170.00000000000003" y="538.4" width="45.6" height="61.800000000000004" as="geometry" />
        </mxCell>
        <mxCell id="0XzX4mWb3L80cD25JRJm-34" style="edgeStyle=orthogonalEdgeStyle;rounded=0;orthogonalLoop=1;jettySize=auto;html=1;" edge="1" parent="1" source="0XzX4mWb3L80cD25JRJm-2" target="0XzX4mWb3L80cD25JRJm-10">
          <mxGeometry relative="1" as="geometry">
            <Array as="points">
              <mxPoint x="360" y="453" />
              <mxPoint x="360" y="486" />
            </Array>
          </mxGeometry>
        </mxCell>
        <mxCell id="0XzX4mWb3L80cD25JRJm-2" value="Webserver&lt;br&gt;" style="image;aspect=fixed;perimeter=ellipsePerimeter;html=1;align=center;shadow=0;dashed=0;spacingTop=3;image=img/lib/active_directory/web_server.svg;" vertex="1" parent="1">
          <mxGeometry x="504" y="425" width="44" height="55" as="geometry" />
        </mxCell>
        <mxCell id="0XzX4mWb3L80cD25JRJm-15" style="edgeStyle=orthogonalEdgeStyle;rounded=0;orthogonalLoop=1;jettySize=auto;html=1;exitX=0;exitY=0.5;exitDx=0;exitDy=0;startArrow=classic;startFill=1;" edge="1" parent="1" source="0XzX4mWb3L80cD25JRJm-5" target="0XzX4mWb3L80cD25JRJm-12">
          <mxGeometry relative="1" as="geometry">
            <Array as="points">
              <mxPoint x="670" y="637" />
              <mxPoint x="670" y="637" />
            </Array>
          </mxGeometry>
        </mxCell>
        <mxCell id="0XzX4mWb3L80cD25JRJm-16" value="Daten" style="edgeLabel;html=1;align=center;verticalAlign=middle;resizable=0;points=[];" vertex="1" connectable="0" parent="0XzX4mWb3L80cD25JRJm-15">
          <mxGeometry x="-0.0635" y="-1" relative="1" as="geometry">
            <mxPoint as="offset" />
          </mxGeometry>
        </mxCell>
        <mxCell id="0XzX4mWb3L80cD25JRJm-5" value="Datenbank-Server&lt;br&gt;" style="image;aspect=fixed;perimeter=ellipsePerimeter;html=1;align=center;shadow=0;dashed=0;spacingTop=3;image=img/lib/active_directory/sql_server.svg;" vertex="1" parent="1">
          <mxGeometry x="710" y="607.95" width="45.5" height="59.09" as="geometry" />
        </mxCell>
        <mxCell id="0XzX4mWb3L80cD25JRJm-10" value="mobiles GerÃ¤t" style="verticalLabelPosition=bottom;sketch=0;aspect=fixed;html=1;verticalAlign=top;strokeColor=none;align=center;outlineConnect=0;shape=mxgraph.citrix.tablet_1;" vertex="1" parent="1">
          <mxGeometry x="173.07" y="460" width="39.45" height="51.09" as="geometry" />
        </mxCell>
        <mxCell id="0XzX4mWb3L80cD25JRJm-42" style="edgeStyle=orthogonalEdgeStyle;rounded=0;orthogonalLoop=1;jettySize=auto;html=1;entryX=1;entryY=0.5;entryDx=0;entryDy=0;dashed=1;" edge="1" parent="1" source="0XzX4mWb3L80cD25JRJm-12" target="0XzX4mWb3L80cD25JRJm-26">
          <mxGeometry relative="1" as="geometry">
            <Array as="points">
              <mxPoint x="290" y="638" />
              <mxPoint x="290" y="398" />
            </Array>
          </mxGeometry>
        </mxCell>
        <mxCell id="0XzX4mWb3L80cD25JRJm-12" value="API-Server" style="image;aspect=fixed;perimeter=ellipsePerimeter;html=1;align=center;shadow=0;dashed=0;spacingTop=3;image=img/lib/active_directory/web_server.svg;" vertex="1" parent="1">
          <mxGeometry x="504" y="610" width="44" height="55" as="geometry" />
        </mxCell>
        <mxCell id="0XzX4mWb3L80cD25JRJm-26" value="Dritt-Dienst-Anbieter" style="image;aspect=fixed;perimeter=ellipsePerimeter;html=1;align=center;shadow=0;dashed=0;spacingTop=3;image=img/lib/active_directory/web_server.svg;" vertex="1" parent="1">
          <mxGeometry x="173.07" y="370" width="44" height="55" as="geometry" />
        </mxCell>
        <mxCell id="0XzX4mWb3L80cD25JRJm-35" style="edgeStyle=orthogonalEdgeStyle;rounded=0;orthogonalLoop=1;jettySize=auto;html=1;entryX=1.006;entryY=0.611;entryDx=0;entryDy=0;entryPerimeter=0;" edge="1" parent="1" source="0XzX4mWb3L80cD25JRJm-2" target="0XzX4mWb3L80cD25JRJm-1">
          <mxGeometry relative="1" as="geometry">
            <Array as="points">
              <mxPoint x="360" y="453" />
              <mxPoint x="360" y="576" />
            </Array>
          </mxGeometry>
        </mxCell>
        <mxCell id="0XzX4mWb3L80cD25JRJm-37" style="edgeStyle=orthogonalEdgeStyle;rounded=0;orthogonalLoop=1;jettySize=auto;html=1;entryX=0.993;entryY=0.798;entryDx=0;entryDy=0;entryPerimeter=0;dashed=1;startArrow=classic;startFill=1;" edge="1" parent="1" source="0XzX4mWb3L80cD25JRJm-12" target="0XzX4mWb3L80cD25JRJm-10">
          <mxGeometry relative="1" as="geometry">
            <Array as="points">
              <mxPoint x="290" y="638" />
              <mxPoint x="290" y="501" />
            </Array>
          </mxGeometry>
        </mxCell>
        <mxCell id="0XzX4mWb3L80cD25JRJm-40" style="edgeStyle=orthogonalEdgeStyle;rounded=0;orthogonalLoop=1;jettySize=auto;html=1;entryX=0.999;entryY=0.816;entryDx=0;entryDy=0;entryPerimeter=0;dashed=1;" edge="1" parent="1" source="0XzX4mWb3L80cD25JRJm-12" target="0XzX4mWb3L80cD25JRJm-1">
          <mxGeometry relative="1" as="geometry">
            <Array as="points">
              <mxPoint x="290" y="638" />
              <mxPoint x="290" y="589" />
            </Array>
          </mxGeometry>
        </mxCell>
        <mxCell id="0XzX4mWb3L80cD25JRJm-41" style="edgeStyle=orthogonalEdgeStyle;rounded=0;orthogonalLoop=1;jettySize=auto;html=1;entryX=1.009;entryY=0.17;entryDx=0;entryDy=0;entryPerimeter=0;" edge="1" parent="1" source="0XzX4mWb3L80cD25JRJm-2" target="0XzX4mWb3L80cD25JRJm-26">
          <mxGeometry relative="1" as="geometry" />
        </mxCell>
      </root>
    </mxGraphModel>
  </diagram>
</mxfile>
